<svg width="181" height="96" viewBox="0 0 181 96" fill="none" xmlns="http://www.w3.org/2000/svg">
<g clip-path="url(#clip0_69_294)">
<path d="M59.1589 63.8031H51.2319V95.4093H59.1589V63.8031Z" fill="#00BCEB"/>
<path d="M123.162 72.8123C122.869 72.6646 120.226 71.1877 116.41 71.1877C111.272 71.1877 107.749 74.7323 107.749 79.6061C107.749 84.3323 111.125 88.0246 116.41 88.0246C120.079 88.0246 122.722 86.5477 123.162 86.4V94.9661C122.135 95.1138 119.492 96 115.969 96C107.015 96 99.2344 89.7969 99.2344 79.6061C99.2344 70.1538 106.281 63.2123 115.969 63.2123C119.639 63.2123 122.428 64.0984 123.162 64.3938V72.8123Z" fill="#00BCEB"/>
<path d="M40.2222 72.8123C39.9287 72.6646 37.2863 71.1877 33.6164 71.1877C28.4785 71.1877 24.9554 74.7323 24.9554 79.6061C24.9554 84.3323 28.3317 88.0246 33.6164 88.0246C37.2863 88.0246 39.9287 86.5477 40.2222 86.4V94.9661C39.1947 95.2615 36.5523 96.1477 33.0292 96.1477C24.0746 96.1477 16.2944 89.9446 16.2944 79.7538C16.2944 70.3015 23.3407 63.36 33.0292 63.36C36.6991 63.36 39.4883 64.2461 40.2222 64.5415V72.8123Z" fill="#00BCEB"/>
<path d="M164.706 79.6061C164.706 88.6154 157.806 96 148.118 96C138.429 96 131.53 88.6154 131.53 79.6061C131.53 70.5969 138.429 63.2123 148.118 63.2123C157.806 63.2123 164.706 70.5969 164.706 79.6061ZM148.118 71.3354C143.42 71.3354 139.897 75.0277 139.897 79.6061C139.897 84.1846 143.42 87.8769 148.118 87.8769C152.815 87.8769 156.338 84.1846 156.338 79.6061C156.338 75.0277 152.815 71.3354 148.118 71.3354Z" fill="#00BCEB"/>
<path d="M89.2523 71.04C89.1055 71.04 85.7291 70.0061 83.0868 70.0061C79.8573 70.0061 78.2425 71.04 78.2425 72.6646C78.2425 74.5846 80.5913 75.3231 81.9124 75.6184L84.1144 76.3569C89.2523 77.9815 91.601 81.5261 91.601 85.3661C91.601 93.3415 84.7016 96 78.5361 96C74.279 96 70.3155 95.2615 70.0219 95.1138V87.8769C70.7559 88.0246 73.9854 89.0584 77.5085 89.0584C81.472 89.0584 83.2336 87.8769 83.2336 86.1046C83.2336 84.48 81.6188 83.5938 79.7105 83.0031C79.2701 82.8554 78.5361 82.56 77.9489 82.4123C73.545 80.9354 69.8751 78.4246 69.8751 73.1077C69.8751 67.2 74.279 63.2123 81.6188 63.2123C85.4355 63.2123 89.1055 64.0984 89.3991 64.2461V71.04H89.2523Z" fill="#00BCEB"/>
<path d="M7.92701 29.8339C7.92701 27.6185 6.16545 25.8462 3.9635 25.8462C1.76156 25.8462 0 27.6185 0 29.8339V38.1047C0 40.32 1.76156 42.0923 3.9635 42.0923C6.16545 42.0923 7.92701 40.32 7.92701 38.1047V29.8339Z" fill="#00BCEB"/>
<path d="M29.5061 18.9046C29.5061 16.6892 27.7446 14.9169 25.5426 14.9169C23.3407 14.9169 21.5791 16.6892 21.5791 18.9046V38.1046C21.5791 40.3199 23.3407 42.0923 25.5426 42.0923C27.7446 42.0923 29.5061 40.3199 29.5061 38.1046V18.9046Z" fill="#00BCEB"/>
<path d="M51.2319 3.98769C51.2319 1.77231 49.4704 0 47.2684 0C45.0665 0 43.3049 1.77231 43.3049 3.98769V46.08C43.3049 48.2954 45.0665 50.0677 47.2684 50.0677C49.4704 50.0677 51.2319 48.2954 51.2319 46.08V3.98769Z" fill="#00BCEB"/>
<path d="M72.811 18.9046C72.811 16.6892 71.0495 14.9169 68.8475 14.9169C66.6456 14.9169 64.884 16.6892 64.884 18.9046V38.1046C64.884 40.3199 66.6456 42.0923 68.8475 42.0923C71.0495 42.0923 72.811 40.3199 72.811 38.1046V18.9046Z" fill="#00BCEB"/>
<path d="M94.3901 29.8339C94.3901 27.6185 92.6286 25.8462 90.4266 25.8462C88.2247 25.8462 86.4631 27.6185 86.4631 29.8339V38.1047C86.4631 40.32 88.2247 42.0923 90.4266 42.0923C92.6286 42.0923 94.3901 40.32 94.3901 38.1047V29.8339Z" fill="#00BCEB"/>
<path d="M116.116 18.9046C116.116 16.6892 114.354 14.9169 112.152 14.9169C109.951 14.9169 108.189 16.6892 108.189 18.9046V38.1046C108.189 40.3199 109.951 42.0923 112.152 42.0923C114.354 42.0923 116.116 40.3199 116.116 38.1046V18.9046Z" fill="#00BCEB"/>
<path d="M137.695 3.98769C137.695 1.77231 135.934 0 133.732 0C131.53 0 129.768 1.77231 129.768 3.98769V46.08C129.768 48.2954 131.53 50.0677 133.732 50.0677C135.934 50.0677 137.695 48.2954 137.695 46.08V3.98769Z" fill="#00BCEB"/>
<path d="M159.421 18.9046C159.421 16.6892 157.659 14.9169 155.457 14.9169C153.255 14.9169 151.494 16.6892 151.494 18.9046V38.1046C151.494 40.3199 153.255 42.0923 155.457 42.0923C157.659 42.0923 159.421 40.3199 159.421 38.1046V18.9046Z" fill="#00BCEB"/>
<path d="M181 29.8339C181 27.6185 179.238 25.8462 177.036 25.8462C174.835 25.8462 173.073 27.6185 173.073 29.8339V38.1047C173.073 40.32 174.835 42.0923 177.036 42.0923C179.238 42.0923 181 40.32 181 38.1047V29.8339Z" fill="#00BCEB"/>
</g>
<defs>
<clipPath id="clip0_69_294">
<rect width="181" height="96" fill="white"/>
</clipPath>
</defs>
</svg>
