<svg width="24" height="24" viewBox="0 0 24 24" fill="none" xmlns="http://www.w3.org/2000/svg">
<path d="M14 15.667C13.4559 15.8888 12.8736 16.002 12.286 16C9.919 16 8 14.21 8 12C8 9.79 9.919 8 12.286 8C12.896 8 13.475 8.119 14 8.333" stroke="#2B2B2B" stroke-width="1.5" stroke-linecap="round"/>
<path d="M7 3.33801C8.51945 2.45874 10.2445 1.99712 12 2.00001C17.523 2.00001 22 6.47701 22 12C22 17.523 17.523 22 12 22C6.477 22 2 17.523 2 12C2 10.179 2.487 8.47001 3.338 7.00001" stroke="#2B2B2B" stroke-width="1.5" stroke-linecap="round"/>
</svg>
