<svg width="40" height="40" viewBox="0 0 40 40" fill="none" xmlns="http://www.w3.org/2000/svg">
<circle cx="20" cy="20" r="20" fill="#F8F8FF"/>
<path d="M21 17H25.5L25 19H21V28H19V19H15V17H19V15.128C19 13.345 19.186 12.698 19.534 12.046C19.8753 11.402 20.402 10.8753 21.046 10.534C21.698 10.186 22.345 10 24.128 10C24.6507 10 25.108 10.05 25.5 10.15V12H24.128C22.804 12 22.401 12.078 21.989 12.298C21.6933 12.4525 21.4521 12.694 21.298 12.99C21.078 13.401 21 13.804 21 15.128V17Z" fill="#2B2B2B"/>
</svg>
