<svg width="40" height="40" viewBox="0 0 40 40" fill="none" xmlns="http://www.w3.org/2000/svg">
<circle cx="20" cy="20" r="20" fill="#F8F8FF"/>
<path d="M20.0001 15.8999C19.1892 15.8999 18.3965 16.1404 17.7223 16.5909C17.0481 17.0414 16.5226 17.6817 16.2122 18.4309C15.9019 19.1801 15.8207 20.0044 15.9789 20.7998C16.1371 21.5951 16.5276 22.3256 17.101 22.899C17.6744 23.4724 18.4049 23.8629 19.2003 24.0211C19.9956 24.1793 20.82 24.0981 21.5691 23.7878C22.3183 23.4775 22.9586 22.952 23.4092 22.2777C23.8597 21.6035 24.1001 20.8108 24.1001 19.9999C24.1015 19.4611 23.9963 18.9274 23.7907 18.4293C23.5852 17.9313 23.2832 17.4788 22.9022 17.0978C22.5212 16.7168 22.0687 16.4149 21.5707 16.2093C21.0727 16.0037 20.5389 15.8986 20.0001 15.8999ZM20.0001 22.6699C19.4721 22.6699 18.9558 22.5133 18.5168 22.2199C18.0777 21.9265 17.7355 21.5095 17.5334 21.0217C17.3313 20.5338 17.2784 19.9969 17.3814 19.479C17.4845 18.9611 17.7388 18.4853 18.1122 18.1119C18.4856 17.7385 18.9613 17.4842 19.4792 17.3812C19.9972 17.2782 20.534 17.331 21.0219 17.5331C21.5098 17.7352 21.9268 18.0774 22.2202 18.5165C22.5135 18.9556 22.6701 19.4718 22.6701 19.9999C22.6701 20.708 22.3888 21.3871 21.8881 21.8879C21.3874 22.3886 20.7083 22.6699 20.0001 22.6699ZM25.2301 15.7299C25.2301 15.9277 25.1715 16.121 25.0616 16.2855C24.9517 16.4499 24.7955 16.5781 24.6128 16.6538C24.4301 16.7295 24.229 16.7493 24.035 16.7107C23.8411 16.6721 23.6629 16.5769 23.523 16.437C23.3832 16.2971 23.2879 16.119 23.2494 15.925C23.2108 15.731 23.2306 15.5299 23.3063 15.3472C23.3819 15.1645 23.5101 15.0083 23.6746 14.8984C23.839 14.7885 24.0324 14.7299 24.2301 14.7299C24.4954 14.7299 24.7497 14.8352 24.9372 15.0228C25.1248 15.2103 25.2301 15.4647 25.2301 15.7299ZM27.9401 16.7299C27.9703 15.4865 27.5064 14.2819 26.6501 13.3799C26.2059 12.9505 25.6814 12.6129 25.1066 12.3864C24.5317 12.1599 23.9179 12.0489 23.3001 12.0599C22.0001 11.9999 18.0001 11.9999 16.7001 12.0599C15.4573 12.033 14.2539 12.4964 13.3501 13.3499C12.4938 14.2519 12.03 15.4565 12.0601 16.6999C12.0001 17.9999 12.0001 21.9999 12.0601 23.2999C12.03 24.5433 12.4938 25.7479 13.3501 26.6499C14.2539 27.5034 15.4573 27.9668 16.7001 27.9399C18.0201 28.0199 21.9801 28.0199 23.3001 27.9399C24.5435 27.9701 25.7481 27.5062 26.6501 26.6499C27.5064 25.7479 27.9703 24.5433 27.9401 23.2999C28.0001 21.9999 28.0001 17.9999 27.9401 16.6999V16.7299ZM26.2401 24.7299C26.1044 25.0738 25.8994 25.3862 25.6379 25.6477C25.3765 25.9091 25.0641 26.1141 24.7201 26.2499C23.1677 26.5637 21.5807 26.6713 20.0001 26.5699C18.4229 26.6705 16.8393 26.5629 15.2901 26.2499C14.9462 26.1141 14.6338 25.9091 14.3723 25.6477C14.1109 25.3862 13.9059 25.0738 13.7701 24.7299C13.3501 23.6699 13.4401 21.1699 13.4401 20.0099C13.4401 18.8499 13.3501 16.3399 13.7701 15.2899C13.9021 14.9426 14.1056 14.6269 14.3674 14.3633C14.6293 14.0997 14.9437 13.8941 15.2901 13.7599C16.8393 13.4469 18.4229 13.3393 20.0001 13.4399C21.5807 13.3384 23.1677 13.446 24.7201 13.7599C25.0641 13.8957 25.3765 14.1006 25.6379 14.3621C25.8994 14.6236 26.1044 14.936 26.2401 15.2799C26.6601 16.3399 26.5601 18.8399 26.5601 19.9999C26.5601 21.1599 26.6601 23.6699 26.2401 24.7199V24.7299Z" fill="#2B2B2B"/>
</svg>
