<svg width="40" height="40" viewBox="0 0 40 40" fill="none" xmlns="http://www.w3.org/2000/svg">
<circle cx="20" cy="20" r="20" fill="#F8F8FF"/>
<path d="M12.9829 15.197C14.1913 15.197 15.1709 14.2174 15.1709 13.009C15.1709 11.8006 14.1913 10.821 12.9829 10.821C11.7745 10.821 10.7949 11.8006 10.7949 13.009C10.7949 14.2174 11.7745 15.197 12.9829 15.197Z" fill="#2B2B2B"/>
<path d="M17.2372 16.8549V28.9939H21.0062V22.9909C21.0062 21.4069 21.3042 19.8729 23.2682 19.8729C25.2052 19.8729 25.2292 21.6839 25.2292 23.0909V28.9949H29.0002V22.3379C29.0002 19.0679 28.2962 16.5549 24.4742 16.5549C22.6392 16.5549 21.4092 17.5619 20.9062 18.5149H20.8552V16.8549H17.2372ZM11.0952 16.8549H14.8702V28.9939H11.0952V16.8549Z" fill="#2B2B2B"/>
</svg>
