<svg width="281" height="60" viewBox="0 0 281 60" fill="none" xmlns="http://www.w3.org/2000/svg">
<g clip-path="url(#clip0_69_287)">
<path d="M99.1875 34.5582L97.5126 39.3024H97.3731C97.0939 38.2326 96.5822 36.6047 95.7448 34.6512L86.7658 12.0931H77.9729V48.0466H83.7883V25.8605C83.7883 24.4652 83.7883 22.8838 83.7418 20.9303C83.6952 19.9535 83.6022 19.2093 83.5557 18.6512H83.6952C83.9744 20.0466 84.3 21.0698 84.5327 21.721L95.326 47.9535H99.4201L110.12 21.4884C110.353 20.8838 110.586 19.6745 110.818 18.6512H110.958C110.818 21.3024 110.725 23.6745 110.679 25.1163V47.907H116.866V12H108.399L99.1875 34.5582ZM122.728 22.1396H128.776V47.907H122.728V22.1396ZM125.799 11.2559C124.775 11.2559 123.938 11.6279 123.24 12.2791C122.542 12.9303 122.17 13.7675 122.17 14.7907C122.17 15.7675 122.542 16.6047 123.24 17.2559C123.938 17.907 124.775 18.2326 125.799 18.2326C126.822 18.2326 127.706 17.8605 128.357 17.2559C129.055 16.6047 129.428 15.7675 129.428 14.7907C129.428 13.814 129.055 12.9768 128.357 12.2791C127.753 11.6279 126.869 11.2559 125.799 11.2559ZM150.223 21.907C149.107 21.6745 147.944 21.5349 146.827 21.5349C144.082 21.5349 141.57 22.1396 139.477 23.3489C137.383 24.5582 135.708 26.2326 134.638 28.3256C133.522 30.4652 132.963 32.9303 132.963 35.7675C132.963 38.2326 133.522 40.4186 134.592 42.4186C135.662 44.3721 137.15 45.9535 139.151 47.0233C141.058 48.0931 143.291 48.6512 145.804 48.6512C148.688 48.6512 151.154 48.0466 153.108 46.9303L153.154 46.8838V41.3024L152.922 41.4884C152.038 42.1396 151.014 42.6977 149.991 43.0233C148.921 43.3954 147.944 43.5814 147.106 43.5814C144.687 43.5814 142.78 42.8838 141.431 41.3489C140.035 39.8605 139.337 37.814 139.337 35.2559C139.337 32.6047 140.035 30.5117 141.477 28.9768C142.919 27.4419 144.827 26.6512 147.153 26.6512C149.107 26.6512 151.107 27.3024 152.922 28.6047L153.154 28.7907V22.8838L153.108 22.8372C152.317 22.5117 151.433 22.1396 150.223 21.907ZM170.182 21.721C168.693 21.721 167.297 22.1861 166.088 23.1628C165.064 24 164.366 25.2093 163.762 26.6512H163.715V22.1396H157.667V47.907H163.715V34.7442C163.715 32.5117 164.18 30.6512 165.204 29.3024C166.227 27.907 167.53 27.2093 169.112 27.2093C169.67 27.2093 170.228 27.3489 170.926 27.4419C171.578 27.6279 172.043 27.814 172.368 28.0466L172.601 28.2326V22.1861L172.461 22.1396C172.043 21.8605 171.205 21.721 170.182 21.721ZM186.651 21.5814C182.417 21.5814 179.021 22.8373 176.649 25.3024C174.229 27.7675 173.066 31.1628 173.066 35.4419C173.066 39.4419 174.276 42.6977 176.602 45.0698C178.928 47.3954 182.092 48.6047 186.046 48.6047C190.187 48.6047 193.49 47.3489 195.863 44.8372C198.282 42.3256 199.445 38.9768 199.445 34.8373C199.445 30.7442 198.328 27.4884 196.049 25.1163C193.862 22.7442 190.652 21.5814 186.651 21.5814ZM191.489 41.3954C190.373 42.8372 188.605 43.5349 186.418 43.5349C184.232 43.5349 182.464 42.8373 181.208 41.3024C179.952 39.8605 179.347 37.7675 179.347 35.1163C179.347 32.3721 179.998 30.2791 181.208 28.7907C182.464 27.3024 184.185 26.5582 186.372 26.5582C188.512 26.5582 190.187 27.2559 191.396 28.6977C192.606 30.1396 193.257 32.2326 193.257 34.9768C193.164 37.7675 192.653 39.9535 191.489 41.3954ZM212.937 32.8372C211.029 32.0466 209.82 31.4419 209.261 30.9303C208.796 30.4652 208.563 29.814 208.563 28.9768C208.563 28.2791 208.843 27.5814 209.54 27.1163C210.238 26.6512 211.029 26.4186 212.192 26.4186C213.216 26.4186 214.286 26.6047 215.309 26.8838C216.333 27.1628 217.263 27.5814 218.008 28.1396L218.24 28.3256V22.6512L218.101 22.6047C217.403 22.3256 216.472 22.0466 215.356 21.814C214.239 21.6279 213.216 21.5349 212.378 21.5349C209.494 21.5349 207.121 22.2326 205.26 23.7675C203.399 25.2093 202.515 27.1628 202.515 29.4419C202.515 30.6512 202.702 31.721 203.12 32.6047C203.539 33.4884 204.144 34.3256 204.981 35.0233C205.819 35.6745 207.028 36.4186 208.703 37.1163C210.099 37.721 211.169 38.1861 211.82 38.5582C212.471 38.9303 212.89 39.3489 213.216 39.6745C213.448 40.0466 213.588 40.5117 213.588 41.1163C213.588 42.8372 212.285 43.6745 209.633 43.6745C208.61 43.6745 207.54 43.4884 206.284 43.0698C205.028 42.6512 203.865 42.0466 202.888 41.3489L202.655 41.1628V47.0698L202.795 47.1163C203.679 47.5349 204.749 47.814 206.051 48.1396C207.354 48.3721 208.517 48.5582 209.54 48.5582C212.658 48.5582 215.216 47.8605 217.031 46.3256C218.892 44.8372 219.869 42.9303 219.869 40.4652C219.869 38.7442 219.403 37.2093 218.38 36.0466C217.031 34.9303 215.356 33.7675 212.937 32.8372ZM235.826 21.5814C231.592 21.5814 228.196 22.8373 225.824 25.3024C223.451 27.7675 222.241 31.1628 222.241 35.4419C222.241 39.4419 223.451 42.6977 225.777 45.0698C228.103 47.3954 231.267 48.6047 235.221 48.6047C239.362 48.6047 242.665 47.3489 245.038 44.8372C247.457 42.3256 248.62 38.9768 248.62 34.8373C248.62 30.7442 247.503 27.4884 245.224 25.1163C243.037 22.7442 239.827 21.5814 235.826 21.5814ZM240.618 41.3954C239.501 42.8372 237.733 43.5349 235.547 43.5349C233.314 43.5349 231.592 42.8373 230.336 41.3024C229.08 39.8605 228.475 37.7675 228.475 35.1163C228.475 32.3721 229.127 30.2791 230.336 28.7907C231.592 27.3024 233.314 26.5582 235.5 26.5582C237.594 26.5582 239.315 27.2559 240.525 28.6977C241.734 30.1396 242.386 32.2326 242.386 34.9768C242.386 37.7675 241.781 39.9535 240.618 41.3954ZM280.954 27.1163V22.1396H274.859V14.5117L274.673 14.5582L268.904 16.2791L268.764 16.3256V22.1396H259.646V18.8838C259.646 17.3954 260.018 16.2326 260.669 15.4884C261.321 14.7442 262.298 14.3721 263.507 14.3721C264.345 14.3721 265.229 14.5582 266.206 14.9768L266.438 15.1163V9.86051L266.299 9.81399C265.461 9.53492 264.345 9.34888 262.903 9.34888C261.088 9.34888 259.506 9.76748 258.064 10.4652C256.622 11.2559 255.552 12.3256 254.761 13.7675C253.97 15.1628 253.551 16.7442 253.551 18.5582V22.1396H249.318V27.0698H253.551V47.907H259.646V27.1163H268.764V40.3721C268.764 45.814 271.323 48.5582 276.441 48.5582C277.278 48.5582 278.162 48.4186 279 48.2791C279.883 48.0931 280.535 47.8605 280.907 47.6745L280.954 47.6279V42.6512L280.721 42.8372C280.349 43.0698 280.023 43.2559 279.465 43.3954C279 43.5349 278.581 43.5814 278.255 43.5814C277.046 43.5814 276.208 43.3024 275.603 42.6047C275.045 41.9535 274.766 40.8838 274.766 39.3024V27.1163H280.954Z" fill="#737373"/>
<path d="M0 0H28.5187V28.5116H0V0Z" fill="#F25022"/>
<path d="M31.4962 0H60.0149V28.5116H31.4962V0Z" fill="#7FBA00"/>
<path d="M0 31.4884H28.5187V60H0V31.4884Z" fill="#00A4EF"/>
<path d="M31.4962 31.4884H60.0149V60H31.4962V31.4884Z" fill="#FFB900"/>
</g>
<defs>
<clipPath id="clip0_69_287">
<rect width="281" height="60" fill="white"/>
</clipPath>
</defs>
</svg>
