<svg width="40" height="40" viewBox="0 0 40 40" fill="none" xmlns="http://www.w3.org/2000/svg">
<circle cx="20" cy="20" r="20" fill="#F8F8FF"/>
<path d="M29.7499 13.9602C29.0327 14.2695 28.2522 14.4922 27.4483 14.5789C28.283 14.0831 28.908 13.2997 29.2062 12.3758C28.423 12.8417 27.565 13.1684 26.6702 13.3414C26.2963 12.9416 25.844 12.6231 25.3415 12.4058C24.8391 12.1885 24.2973 12.0769 23.7499 12.0781C21.5351 12.0781 19.7538 13.8734 19.7538 16.0766C19.7538 16.3859 19.7913 16.6953 19.8522 16.993C16.5358 16.8195 13.578 15.2352 11.6116 12.8094C11.2533 13.4214 11.0655 14.1182 11.0679 14.8274C11.0679 16.2149 11.7733 17.4383 12.8491 18.1578C12.2151 18.1329 11.596 17.9586 11.0421 17.6492V17.6984C11.0421 19.6414 12.4155 21.2516 14.246 21.6219C13.9023 21.7112 13.5487 21.7568 13.1937 21.7578C12.9335 21.7578 12.6874 21.732 12.439 21.6969C12.9452 23.2813 14.4194 24.432 16.1749 24.4695C14.8015 25.5453 13.0812 26.1781 11.2132 26.1781C10.878 26.1781 10.5687 26.1664 10.2476 26.1289C12.0194 27.2656 14.1218 27.9219 16.3858 27.9219C23.7358 27.9219 27.7577 21.8328 27.7577 16.5477C27.7577 16.3742 27.7577 16.2008 27.746 16.0274C28.5241 15.4578 29.2062 14.7524 29.7499 13.9602Z" fill="#2B2B2B"/>
</svg>
